<svg width="537" height="786" viewBox="0 0 537 786" fill="none" xmlns="http://www.w3.org/2000/svg">
<path d="M202.582 23.2047C237.435 2.10571 279.981 -5.50498 319.562 4.11091C320.658 4.3609 321.753 4.61072 322.882 4.86872C329.737 6.5677 336.144 9.18894 342.562 12.1109C343.156 12.3799 343.751 12.6484 344.363 12.9254C360.076 20.1373 374.603 29.658 387.562 41.1109C388.049 41.5379 388.536 41.9649 389.038 42.4039C402.976 54.6838 415.407 68.273 426.562 83.1109C427.371 84.1739 428.181 85.2354 428.992 86.2984C436.471 96.1694 443.407 106.22 449.75 116.861C450.402 117.954 451.054 119.048 451.726 120.173C494.493 192.314 523.609 274.972 533.187 358.422C533.405 360.28 533.624 362.138 533.843 363.996C534.055 365.801 534.266 367.606 534.476 369.412C534.618 370.628 534.618 370.629 534.763 371.872C535.04 374.284 535.303 376.697 535.562 379.111C535.655 379.93 535.748 380.748 535.843 381.59C536.7 389.825 536.763 398.056 536.8 406.326C536.804 407.098 536.808 407.871 536.813 408.667C536.833 412.78 536.849 416.892 536.858 421.006C536.867 424.322 536.886 427.64 536.919 430.956C537.582 500.794 523.773 572.116 490.562 634.111C490.17 634.845 489.778 635.58 489.374 636.336C484.226 645.929 478.795 655.172 472.562 664.111C471.854 665.155 471.147 666.198 470.417 667.274C451.655 694.81 429.047 721.017 401.562 740.111C400.954 740.542 400.346 740.974 399.72 741.418C384.101 752.466 367.359 762.068 349.562 769.111C348.742 769.441 347.922 769.771 347.077 770.111C319.624 781.107 292.664 785.49 263.187 785.486C262.374 785.488 261.562 785.49 260.724 785.491C227.089 785.483 195.33 776.617 165.553 761.142C163.576 760.117 161.591 759.109 159.605 758.102C151.736 754.065 144.58 749.511 137.562 744.111C136.633 743.436 135.703 742.759 134.746 742.063C116.788 728.96 100.215 713.679 86.5618 696.111C85.7378 695.104 84.9157 694.096 84.0667 693.059C72.4637 678.813 62.3066 663.354 53.6546 647.15C52.4876 644.97 51.2986 642.804 50.1097 640.637C44.2457 629.846 39.2015 618.822 34.5335 607.465C33.6875 605.414 32.8235 603.371 31.9495 601.33C27.0215 589.535 23.3198 577.318 19.5618 565.111C19.1818 563.879 18.8014 562.645 18.4104 561.377C16.0064 553.247 13.9653 545.012 11.8743 536.798C11.5643 535.592 11.2539 534.386 10.9349 533.144C9.5119 527.478 8.30024 521.99 7.79325 516.169C7.55625 514.06 7.13212 512.086 6.63212 510.024C-3.35472 466.907 -0.670118 418.561 5.56181 375.111C5.8238 373.284 5.82412 373.283 6.0911 371.419C7.00809 365.24 8.19947 359.285 9.78544 353.242C10.6164 349.892 11.2791 346.535 11.9251 343.145C13.4241 335.49 15.2898 327.957 17.3118 320.422C17.5718 319.45 17.5722 319.45 17.8382 318.459C20.8851 307.131 24.3859 296.072 28.5618 285.111C28.9138 284.177 29.2662 283.243 29.6292 282.28C34.1461 270.335 38.8209 258.528 44.5618 247.111C44.9828 246.271 45.4042 245.431 45.8382 244.566C52.83 230.717 60.292 217.237 68.5618 204.111C69.1638 203.152 69.7671 202.192 70.387 201.204C72.2589 198.243 74.1559 195.3 76.0618 192.361C76.6498 191.437 77.2371 190.511 77.8431 189.559C78.4 188.715 78.9576 187.87 79.5315 187.002C80.0205 186.249 80.509 185.496 81.013 184.72C81.5238 184.189 82.035 183.659 82.5618 183.111H86.5618C85.2729 187.167 83.7824 190.999 81.9886 194.856C81.4896 195.933 80.9899 197.01 80.4759 198.12C79.683 199.816 79.6832 199.817 78.8743 201.548C78.3313 202.72 77.7868 203.892 77.2268 205.1C75.0189 209.854 72.8056 214.605 70.5667 219.344C68.8777 222.924 67.2108 226.513 65.5618 230.111C65.1989 230.898 64.8371 231.686 64.4632 232.497C59.1142 244.189 54.3658 256.017 50.1868 268.172C49.7818 269.348 49.3782 270.525 48.9612 271.736C44.4013 285.239 40.6994 298.982 37.1604 312.781C36.7825 314.254 36.3999 315.727 36.0149 317.199C33.017 328.694 31.2015 340.295 29.4925 352.044C28.9575 355.689 28.3362 359.275 27.5462 362.873C26.0822 370.001 25.5318 377.244 24.9368 384.486C24.8388 385.668 24.8395 385.669 24.7395 386.876C18.2666 467.391 32.4371 548.119 69.5501 620.13C70.5531 622.092 71.5292 624.067 72.5032 626.044C83.6912 648.365 98.6428 668.813 115.562 687.111C116.414 688.066 117.266 689.021 118.144 690.005C143.193 718.039 176.305 740.573 212.562 751.111C213.98 751.544 215.399 751.978 216.817 752.412C221.367 753.775 225.947 754.984 230.562 756.111C231.579 756.363 231.579 756.363 232.617 756.62C274.738 766.488 325.385 757.717 362.562 736.111C363.959 735.334 365.356 734.558 366.753 733.783C381.554 725.448 394.863 715.355 407.562 704.111C408.106 703.63 408.65 703.149 409.21 702.654C421.701 691.541 432.492 679.439 442.562 666.111C443.065 665.454 443.567 664.797 444.085 664.121C473.707 625.24 491.408 580.063 503.562 533.111C503.773 532.309 503.983 531.507 504.2 530.681C508.752 512.899 510.435 494.306 512.562 476.111C512.699 474.952 512.836 473.793 512.978 472.599C516.531 441.034 516.153 407.649 512.562 376.111C512.361 374.338 512.362 374.337 512.156 372.529C510.162 355.53 507.382 338.724 504.104 321.929C503.642 319.528 503.205 317.125 502.789 314.715C496.335 277.856 483.964 241.949 470.562 207.111C470.274 206.36 469.988 205.609 469.691 204.836C466.38 196.232 462.699 187.829 458.711 179.518C457.354 176.675 456.02 173.822 454.683 170.969C440.471 140.815 423.882 111.852 402.562 86.1109C401.915 85.2629 401.268 84.4146 400.601 83.5406C378.237 54.6346 346.473 29.1799 309.562 23.1109C299.804 22.1019 290.051 21.9559 280.25 21.9859C278.938 21.9819 277.627 21.9772 276.276 21.9732C274.413 21.9752 274.412 21.9751 272.511 21.9771C271.391 21.9781 270.27 21.979 269.116 21.981C266.629 21.821 266.628 21.8219 265.562 23.1109C263.964 23.4139 262.358 23.6765 260.75 23.9224C244.041 26.9294 229.174 34.7949 216.562 46.1109C215.667 46.8835 215.667 46.8836 214.753 47.6724C199.284 61.9634 190.528 82.6263 189.214 103.473C187.914 140.822 208.585 172.463 232.562 199.111C233.097 199.709 233.632 200.307 234.183 200.922C239.304 206.633 244.42 212.252 250.317 217.18C253.427 219.853 256.387 222.677 259.374 225.486C264.341 230.132 269.414 234.553 274.726 238.805C278.024 241.485 281.228 244.263 284.437 247.048C289.347 251.291 294.352 255.334 299.527 259.251C303.952 262.609 308.264 266.093 312.562 269.611C317.444 273.604 322.358 277.538 327.374 281.361C341.655 292.26 355.307 303.989 368.562 316.111C369.066 316.57 369.57 317.028 370.089 317.501C380.055 326.581 389.907 335.745 398.562 346.111C399.004 346.633 399.446 347.156 399.901 347.694C413.115 363.376 425.096 379.889 434.562 398.111C434.915 398.786 435.268 399.462 435.631 400.158C438.026 404.77 440.326 409.42 442.562 414.111C443.237 415.511 443.237 415.51 443.925 416.938C451.002 432.704 455.062 450.071 457.562 467.111C457.734 468.035 457.906 468.959 458.083 469.911C458.966 475.813 458.76 481.779 458.75 487.736C458.749 488.43 458.748 489.123 458.747 489.837C458.626 530.99 447.189 567.885 422.562 601.111C421.893 602.025 421.224 602.939 420.535 603.88C408.792 619.017 394.397 632.384 378.562 643.111C377.944 643.542 377.325 643.972 376.688 644.416C353.356 660.557 324.61 670.71 296.562 674.111C295.638 674.282 294.714 674.452 293.762 674.628C248.883 681.403 201.33 665.963 165.312 639.672C149.15 627.128 134.723 613.601 122.562 597.111C121.78 596.05 120.998 594.988 120.192 593.895C108.191 577.069 99.1028 558.686 92.5618 539.111C92.2378 538.174 91.9153 537.236 91.5823 536.27C90.2844 532.247 89.1568 528.193 88.0618 524.111C87.8488 523.349 87.6373 522.586 87.4173 521.801C84.1563 509.616 83.2301 497.528 83.3011 484.979C83.3121 482.744 83.3013 480.509 83.2893 478.274C83.2744 464.911 84.3099 451.691 88.0618 438.798C88.3138 437.926 88.5665 437.054 88.8265 436.155C94.3594 418.186 104.75 402.68 117.562 389.111C118.149 388.472 118.735 387.831 119.339 387.172C123.896 382.371 129.015 378.698 134.562 375.111C135.939 374.21 135.939 374.209 137.343 373.291C145.084 368.484 152.86 365.592 161.562 363.111C162.39 362.863 163.218 362.616 164.071 362.361C184.942 357.125 207.826 362.285 225.942 373.133C241.072 383.781 251.327 397.978 255.562 416.111C257.037 432.075 256.182 447.636 245.907 460.633C239.438 467.469 230.939 473.95 221.257 474.544C219.734 474.567 218.21 474.568 216.687 474.548C215.891 474.538 215.095 474.529 214.277 474.52C207.142 474.31 201.929 473.231 196.582 468.274C192.071 463.419 188.883 458.951 188.124 452.236C188.35 446.643 190.7 441.972 194.624 438.048C196.562 437.11 196.562 437.111 199.562 438.111C198.737 438.73 197.912 439.349 197.062 439.986C194.501 442.54 194.148 444.468 194.062 448.048C194.307 452.386 194.989 455.509 197.562 459.111C204.251 464.267 210.289 465.149 218.562 464.111C225.66 461.428 230.966 456.769 234.562 450.111C238.832 440.354 238.826 429.198 235.562 419.111C229.935 406.668 222.103 397.786 209.165 392.841C195.214 387.974 179.616 389.052 166.187 395.361C161.235 398.107 156.838 401.411 152.562 405.111C151.894 405.683 151.227 406.255 150.539 406.844C138.184 418.272 131.855 433.537 128.14 449.649C127.562 452.11 127.562 452.111 126.562 455.111C125.381 474.166 125.803 492.798 131.562 511.111C131.891 512.211 131.891 512.211 132.227 513.334C137.499 530.741 145.433 547.698 156.562 562.111C157.218 562.976 157.874 563.84 158.55 564.731C165.707 573.925 173.406 582.859 182.562 590.111C184.111 591.341 184.112 591.34 185.692 592.594C202.334 605.452 220.763 615.439 241.492 619.494C244.562 620.111 244.562 620.111 248.062 621.172C265.168 625.755 283.305 625.327 300.499 621.554C302.558 621.111 304.624 620.721 306.696 620.337C338.06 614.167 366.279 593.708 384.33 567.671C399.117 545.595 405.75 521.889 405.747 495.455C405.749 493.182 405.768 490.908 405.787 488.635C405.817 480.908 405.486 473.634 403.562 466.111C403.271 464.723 402.984 463.332 402.703 461.942C400.591 452.215 397.674 443.186 393.562 434.111C393.279 433.479 392.995 432.846 392.704 432.195C382.857 410.543 368.197 391.804 351.958 374.603C349.85 372.348 347.801 370.042 345.75 367.736C340.444 361.83 334.933 356.362 328.917 351.184C326.546 349.096 324.233 346.955 321.924 344.798C316.542 339.773 311.053 334.999 305.308 330.387C302.299 327.892 299.423 325.273 296.562 322.611C291.986 318.359 287.276 314.343 282.41 310.422C278.692 307.403 275.047 304.3 271.399 301.195C267.994 298.302 264.545 295.472 261.062 292.672C255.684 288.301 250.629 283.624 245.567 278.895C243.194 276.682 240.776 274.534 238.312 272.422C234.608 269.224 231.202 265.768 227.769 262.283C225.826 260.37 223.839 258.609 221.75 256.861C216.371 252.243 211.721 246.926 206.98 241.672C205.75 240.318 204.501 238.98 203.25 237.645C192.021 225.57 182.366 212.027 173.562 198.111C172.899 197.089 172.237 196.066 171.554 195.012C151.114 161.621 144.483 122.834 153.335 84.7867C160.399 61.0359 178.338 37.852 199.562 25.1109C200.558 24.4819 201.555 23.8526 202.582 23.2047ZM194.562 37.1109C176.46 54.6137 161.435 74.7994 158.757 100.563C154.996 149.73 175.196 189.787 206.23 226.534C206.683 227.07 207.122 227.591 207.562 228.111C218.873 241.866 232.305 254.037 245.687 265.736C247.748 267.522 249.793 269.32 251.816 271.15C257.508 276.322 263.313 281.334 269.199 286.283C270.879 287.694 272.558 289.108 274.232 290.527C281.614 296.8 289.044 303.002 296.562 309.111C303.919 315.073 311.169 321.144 318.339 327.33C319.413 328.257 320.487 329.185 321.562 330.111C326.083 333.953 330.384 337.895 334.562 342.111C336.926 344.508 339.281 346.861 341.8 349.094C344.745 351.601 347.435 353.959 349.937 356.922C351.44 358.826 352.983 360.532 354.703 362.252C380.932 387.82 405.398 421.495 412.753 457.969C413.019 459.35 413.289 460.732 413.562 462.111C418.509 483.441 417.877 505.693 413.562 527.111C412.562 528.111 412.561 528.111 411.906 530.533C408.303 544.744 402.772 559.433 394.437 571.568C393.8 572.433 393.181 573.272 392.562 574.111C376.626 596.05 356.187 613.051 330.946 623.169C330.136 623.488 329.349 623.8 328.562 624.111C301.954 634.784 270.584 639.074 242.624 630.736C240.94 630.186 239.252 629.645 237.562 629.111C217.871 624.078 199.531 614.875 183.453 602.408C182.47 601.627 181.516 600.869 180.562 600.111C175.786 596.375 171.042 592.772 167 588.236C164.562 585.111 164.562 585.111 162.398 582.791C153.626 573.475 145.913 563.437 140.042 552.025C139.295 550.553 139.295 550.553 138.562 549.111C122.229 519.663 113.384 484.73 119.812 451.111C125.475 426.291 137.792 405.961 159 391.798C160.294 390.946 160.294 390.946 161.562 390.111L159.562 389.111C148.459 394.022 137.572 401.508 130.394 411.391C129.771 412.316 129.167 413.214 128.562 414.111C125.364 418.668 122.293 423.255 119.562 428.111C105.509 455.596 106.162 492.947 115.406 521.834C115.799 522.948 116.18 524.029 116.562 525.111C129.358 562.109 150.659 594.908 182.901 617.946C183.466 618.342 184.014 618.727 184.562 619.111C216.703 641.701 255.924 653.276 295.248 648.457C336.213 642.333 375.08 623.938 400.703 590.587C401.642 589.337 401.642 589.336 402.562 588.111C411.332 576.89 417.803 564.75 423.12 551.58C436.213 518.019 439.609 476.194 425.015 442.375C423.528 439.168 423.528 439.167 422.492 435.962C415.657 415.055 403.182 395.606 389.425 378.58C388.468 377.426 387.514 376.269 386.562 375.111C380.441 367.349 373.962 360.221 366.942 353.282C365.838 352.193 364.736 351.1 363.635 350.008C346.949 333.437 329.531 317.808 311.121 303.169C307.009 299.903 302.94 296.601 298.944 293.193C294.467 289.369 289.965 285.602 285.323 281.979C274.501 273.567 264.135 264.657 253.797 255.662C252.053 254.143 250.31 252.624 248.562 251.111C236.833 241.236 226.094 230.087 215.916 218.634C215.455 218.116 215.009 217.614 214.562 217.111C188.911 188.553 167.372 153.646 167.289 114.147C167.297 112.881 167.304 111.652 167.312 110.422C167.265 102.88 167.309 95.6567 169.009 88.2808C169.288 87.185 169.288 87.1845 169.562 86.1109C171.244 79.312 172.915 72.4565 176.316 66.2906C176.945 65.1897 176.945 65.1895 177.562 64.1109C181.357 56.9359 184.993 50.4124 190.562 44.4224C193.319 41.6515 194.562 41.0785 194.562 37.1109Z" fill="#FCF1E2"/>
</svg>
